<svg data-name="Group 1804" xmlns="http://www.w3.org/2000/svg" width="152.863" height="142.066" viewBox="0 0 152.863 142.066">
    <defs>
        <clipPath id="nvc07zykna">
            <path data-name="Rectangle 766" style="fill:#4791ff" d="M0 0h152.863v142.066H0z"/>
        </clipPath>
    </defs>
    <g data-name="Group 1803" style="clip-path:url(#nvc07zykna)">
        <path data-name="Path 6916" d="M152.862 68.035c-.742 3.382-2.892 5.909-5.038 8.47q-11.591 13.833-23.108 27.727a25.148 25.148 0 0 1-19.916 9.428c-12.681.107-25.365.167-38.045-.032-5.973-.094-10.371 2.494-14.1 6.743a2.183 2.183 0 0 0-.374 1.35 14.122 14.122 0 0 1-4.2 10.343q-4.353 4.4-8.758 8.756c-1.679 1.663-3.233 1.663-4.92-.019q-16.538-16.483-33.051-32.99c-1.823-1.823-1.795-3.306.037-5.14 2.777-2.779 5.588-5.525 8.342-8.326A14.707 14.707 0 0 1 19.8 89.813a1.876 1.876 0 0 0 1.3-.884 35.7 35.7 0 0 1 24.23-18.872c.325-.079.635-.216 1-.342V4.019C46.333.888 47.2 0 50.269 0h74.9c2.9 0 3.824.922 3.824 3.832V60.885c.986-.912 1.931-1.686 2.757-2.569 3.291-3.511 7.282-5.033 11.984-3.869a11.486 11.486 0 0 1 8.87 9.071c.03.126.17.225.258.337zM113.954 75.8c2.8-2.568 5.457-5.038 8.155-7.466a2.854 2.854 0 0 0 .933-2.357q-.036-29.155-.018-58.31V6.058H52.392V68.94c.435 0 .775.012 1.115 0a39.737 39.737 0 0 1 16.176 2.688 5.783 5.783 0 0 0 2.037.277c10.39.017 20.78.105 31.169-.032 4.441-.058 8.378.765 11.064 3.927m-63.827 38.523c.237-.211.505-.433.752-.674A20.243 20.243 0 0 1 65.8 107.7c12.777.079 25.555.052 38.332.012 5.7-.018 11-1.69 14.742-6.022 9.032-10.452 17.749-21.178 26.575-31.809a5.9 5.9 0 0 0-2.835-9.489 5.85 5.85 0 0 0-6.12 1.723q-9.146 9.517-18.36 18.968a3.509 3.509 0 0 0-1.107 2.727 11.538 11.538 0 0 1-9.491 11.674 43.359 43.359 0 0 1-7.571.29c-6.861.032-13.723.02-20.584.006a2.949 2.949 0 0 1-3.189-3.4c.193-1.571 1.434-2.553 3.3-2.555 8.4-.008 16.8.012 25.207-.011 4.385-.012 7.261-3.656 6.1-7.658-.765-2.637-3.131-4.268-6.279-4.271-11.137-.01-22.274.017-33.411-.032a18.338 18.338 0 0 1-3.78-.623c-3.133-.687-6.224-1.78-9.392-2.072-8.955-.828-17.147 1.353-24.164 7.186a27.016 27.016 0 0 0-6.99 8.86c8.123 7.519 15.579 15.364 23.351 23.12m-13.222 20.217a.432.432 0 0 0 .2-.079c2.185-2.171 4.388-4.326 6.542-6.53 3.444-3.525 3.426-8.12-.035-11.662-1.945-1.99-3.932-3.94-5.9-5.907-4.006-4.006-7.985-8.04-12.029-12.007-2.869-2.815-7.111-3.41-10.037-1.046-2.948 2.381-5.533 5.209-8.137 7.707l29.4 29.524" style="fill:#4791ff"/>
        <path data-name="Path 6917" d="M94.152 30.919c-2.536-.745-3.614-2.415-2.831-4.263a2.826 2.826 0 0 1 2.779-1.871c1.89 0 3.78-.011 5.67 0a3 3 0 0 1 3.253 2.437c.272 1.679-.628 2.963-2.465 3.513l-.6.184c.12 2.592.045 5.241.4 7.83a11.8 11.8 0 0 0 23.28.052c.364-2.59.289-5.241.415-7.908-1.566-.292-2.68-.959-3.041-2.431a2.944 2.944 0 0 1 2.873-3.667c1.79-.048 3.581-.014 5.371-.012 2.147 0 3.4.886 3.614 2.533.23 1.784-.717 2.954-2.967 3.552 0 1.95.005 3.931 0 5.914-.028 9.238-7.407 17.3-16.312 17.817-9.956.584-18.364-6.2-19.4-15.834a73.438 73.438 0 0 1-.043-7.847" transform="translate(-24.193 -13.58)" style="fill:#4791ff"/>
        <path data-name="Path 6918" d="M92.72 124.572a2.918 2.918 0 0 1-3.019 2.986 3.006 3.006 0 0 1-2.992-2.9 3.14 3.14 0 0 1 2.99-3.1 3 3 0 0 1 3.021 3.021" transform="translate(-23.035 -32.291)" style="fill:#4791ff"/>
    </g>
</svg>
