<svg xmlns="http://www.w3.org/2000/svg" width="169.672" height="169.598" viewBox="0 0 169.672 169.598">
    <defs>
        <clipPath id="hourigkixa">
            <path data-name="Rectangle 767" style="fill:#ff2366" d="M0 0h169.672v169.598H0z"/>
        </clipPath>
    </defs>
    <g data-name="Group 1806" style="clip-path:url(#hourigkixa)">
        <path data-name="Path 6919" d="M56.485 169.6a4.1 4.1 0 0 1-1.58-3.576c.032-16.62 0-33.238.072-49.858.005-1.082.777-2.155 1.161-3.243a4.922 4.922 0 0 0 .38-1.516c.034-3.146.008-6.294.021-9.441.01-2.223.635-2.956 2.842-3.361.361-5.218.227-10.161-3.326-14.683-4.193-5.339-5.229-11.79-4.843-18.469a2.443 2.443 0 0 1 2.529-2.328c1.422.024 2.273 1.009 2.449 2.578a85.5 85.5 0 0 0 1.366 10.093 16.037 16.037 0 0 0 2.916 5.684 19.469 19.469 0 0 1 4.08 12.96c-.058 1.364-.009 2.733-.009 4.179H92.6c0-1.489.062-3.012-.012-4.528-.226-4.668 1.438-8.611 3.964-12.5 3.721-5.723 6.987-11.743 10.425-17.649 2.911-5 5.785-10.026 8.686-15.034a3.777 3.777 0 0 0 .017-4.348 3.015 3.015 0 0 0-3.423-1.457 6.11 6.11 0 0 0-3 2.256c-2.266 3.584-4.287 7.323-6.423 10.991-1.164 2-2.1 2.267-4.223 1.306a8.076 8.076 0 0 0-9.965 2.3c-2.372 3.123-2.176 7.007.333 10.229a4.222 4.222 0 0 1 .849 2.8 2.5 2.5 0 0 1-1.733 1.665 3.586 3.586 0 0 1-2.6-.932 12.981 12.981 0 0 1-.446-17.329 12.675 12.675 0 0 1 12.157-4.423c2.274.364 3.631-.847 3.684-3.276.017-.773 0-1.546 0-2.319V16.557c0-2.466-1.409-4.046-3.575-4.092a3.545 3.545 0 0 0-3.752 3.879c-.02 7.73 0 15.459-.019 23.189a6.366 6.366 0 0 1-.24 1.945 2.244 2.244 0 0 1-2.575 1.6 2.2 2.2 0 0 1-2.145-1.943 11.545 11.545 0 0 1-.128-1.976q-.011-14.576-.008-29.151c0-3.25-1.33-5.066-3.683-5.056-2.368.01-3.717 1.842-3.718 5.068q0 14.991.01 29.98c0 1.389-.3 2.554-1.76 3.006-1.8.554-3.244-.7-3.248-2.833q-.023-11.428-.006-22.858c0-.442.02-.885-.01-1.325a3.643 3.643 0 0 0-3.814-3.528 3.488 3.488 0 0 0-3.5 3.622c-.032 7.784-.01 15.57-.029 23.354a6.878 6.878 0 0 1-.27 2.106 2.461 2.461 0 0 1-4.676-.318 9.892 9.892 0 0 1-.157-1.971c-.014-4.859.026-9.718-.027-14.576-.028-2.521-1.458-3.946-3.719-3.912-2.116.031-3.563 1.518-3.633 3.891s-.019 4.748-.019 7.121v21.534c0 2.058-.924 3.242-2.476 3.245s-2.511-1.2-2.512-3.227c-.005-9.441.152-18.887-.057-28.323-.138-6.2 5.749-10.953 11.584-8.879a4.778 4.778 0 0 0 .8.111 9.11 9.11 0 0 1 4.02-7.428 8.621 8.621 0 0 1 8.324-.748c1.19-5.134 4.09-8.4 9.619-8.04 4.721.306 7.179 3.386 8.1 7.794A22.069 22.069 0 0 1 98 7.407a8.519 8.519 0 0 1 7.89 8.831c.06 7.509.019 15.018.02 22.527V40.8c.428-.291.732-.461.994-.681a8.778 8.778 0 0 1 11.258-.242 8.6 8.6 0 0 1 2.051 11.181q-5.086 9-10.323 17.906c-3.408 5.8-6.884 11.549-10.371 17.3a14.642 14.642 0 0 0-1.96 8.235c.034 1.322.005 2.643.005 3.944 2.589.717 2.97 1.23 2.971 3.942 0 2.484-.009 4.969 0 7.453.008 1.389-.3 2.827 1.146 3.879.4.29.47 1.213.471 1.847q.035 25.508.038 51.016a3.5 3.5 0 0 1-1.647 3.02zm40.5-51.918h-36.8v46.9h36.8zm-35.22-5.227h33.677v-8.691H61.77z" transform="translate(3.814)" style="fill:#ff2366"/>
        <path data-name="Path 6920" d="M111.315 165.15a3.4 3.4 0 0 1-1.676-3.322c.076-4.248.024-8.5.032-12.749 0-.492-.127-1.15.131-1.452 1.806-2.115.912-4.616 1.1-6.955.083-1.042-.081-2.114.085-3.137a2.567 2.567 0 0 1 .961-1.773c1.183-.535 1.1-1.394 1.165-2.4a12.331 12.331 0 0 0-2.614-8.625 19.073 19.073 0 0 1-3.748-11.609c-.075-11.369-.032-22.739-.031-34.109 0-3.948 3.38-8.362 9.476-7.1a7.522 7.522 0 0 1 9.589-6.358c1.208-3.768 3.61-6.028 7.622-5.929 3.369.084 5.631 2.129 6.853 5.837.4-.021.832-.029 1.257-.068 4.826-.442 8.244 2.552 8.3 7.414.066 5.353.017 10.707.018 16.061v1.182c.5-.207.889-.343 1.255-.519a7.249 7.249 0 0 1 8.526 1.346 7.151 7.151 0 0 1 1.112 8.692q-4.165 7.423-8.49 14.757a727.605 727.605 0 0 1-7.423 12.31c-1.541 2.508-1.412 5.263-1.33 8.019a.992.992 0 0 0 .544.663 2.9 2.9 0 0 1 1.73 3.084c-.041 1.655-.017 3.311-.008 4.967.01 1.346-.213 2.692.874 3.874.4.436.358 1.363.363 2.066.03 4.085-.025 8.169.037 12.252a4.06 4.06 0 0 1-1.583 3.575zm27.168-30.111c0-1.445.006-2.713 0-3.98a14.278 14.278 0 0 1 2.307-7.467q7.748-13.084 15.384-26.235a2.535 2.535 0 0 0 .294-1.983c-.3-.639-1.145-1.465-1.709-1.431a3.4 3.4 0 0 0-2.379 1.265c-1.788 2.778-3.347 5.7-5.026 8.549-.985 1.672-2.017 2-3.731 1.3-2.972-1.213-5.494-.693-7.14 1.471-1.627 2.142-1.458 4.731.473 7.272 1.028 1.352.977 2.727-.136 3.689a2.56 2.56 0 0 1-3.682-.38 10.6 10.6 0 0 1 9.269-17.7c1.618.278 2.367-.258 2.374-1.946q.05-12.421 0-24.841a2.064 2.064 0 0 0-2.149-2.237c-1.323-.073-2.148.809-2.23 2.307-.024.441-.009.883-.009 1.325 0 5.52.01 11.04-.006 16.561-.005 2.108-1.033 3.361-2.636 3.313-1.547-.046-2.489-1.249-2.5-3.284-.016-4.913 0-9.826-.006-14.739 0-2.981.013-5.962-.02-8.943a1.984 1.984 0 0 0-2.151-2.192 2.049 2.049 0 0 0-2.221 2.146c-.038.438-.012.882-.012 1.324v22.026a10.653 10.653 0 0 1-.023 1.324 2.568 2.568 0 0 1-2.561 2.337 2.5 2.5 0 0 1-2.422-2.443c-.044-.493-.031-.992-.031-1.488q0-8.032-.008-16.065c0-.6.126-1.35-.172-1.775-.484-.691-1.274-1.628-1.925-1.62-.761.01-1.629.817-2.216 1.484-.322.366-.208 1.157-.21 1.757-.013 5.631 0 11.262-.011 16.893 0 2.072-.883 3.232-2.443 3.26-1.619.028-2.531-1.168-2.534-3.344q-.006-4.388 0-8.777c0-.883.029-1.768-.011-2.649a2.257 2.257 0 0 0-2.216-2.411c-1.24-.1-2.111.869-2.238 2.351-.028.329-.019.662-.019.993 0 10.6.028 21.2-.014 31.8a19.333 19.333 0 0 0 3.591 11.285 20.282 20.282 0 0 1 2.55 6.339 32.054 32.054 0 0 1 .429 5.743c2.427 0 4.794-.074 7.154.025a2.355 2.355 0 0 1 2.451 2.552 2.527 2.527 0 0 1-2.594 2.46c-.715.045-1.435.012-2.152.012h-7.209v5.449h24.583v-5.459c-1.251 0-2.406.072-3.549-.017a2.5 2.5 0 0 1-.179-4.99c.481-.082.969-.127 1.622-.208m-23.739 25.03h26.982v-9.1h-26.983z" transform="translate(7.959 4.448)" style="fill:#ff2366"/>
        <path data-name="Path 6921" d="M0 86.653c1.051-2.576 2.641-4.7 5.57-5.037a27.031 27.031 0 0 1 5.189.405c.008-.16.051-.671.052-1.182.005-4.47-.029-8.941.014-13.411.045-4.828 2.942-7.509 7.754-7.353a1.693 1.693 0 0 0 1.307-.755c1.349-2.864 3.451-4.552 6.705-4.458 3.178.091 5.2 1.825 6.329 4.711a5.75 5.75 0 0 0 .306.559c4.462-.59 7.5 1.19 8.745 5.72a19.741 19.741 0 0 1 2.739.018 6.874 6.874 0 0 1 5.952 6.871c.026 10.486.053 20.972-.023 31.456a17.54 17.54 0 0 1-3.632 10.784 11.194 11.194 0 0 0-2.182 8.078c.03.4.441.758.649 1.15a10.3 10.3 0 0 1 1.38 2.791c.239 1.395-.046 2.87.1 4.292.131 1.313.735 2.6.769 3.9.11 4.051.163 8.113-.021 12.158-.053 1.157-1.378 1.72-2.589 1.5a2.32 2.32 0 0 1-2.087-2.4c-.024-2.526-.006-5.052-.006-7.678H18.639v21.68h24.367c0-.84-.041-1.651.009-2.454a2.383 2.383 0 0 1 2.494-2.5 2.426 2.426 0 0 1 2.482 2.373 28.642 28.642 0 0 1-.055 5.286c-.118.842-1.01 1.574-1.552 2.357H14.909a4.217 4.217 0 0 1-1.457-3.622c.046-8.214.017-16.429.032-24.645 0-.709-.113-1.641.271-2.083 1.047-1.206.813-2.554.831-3.9.014-1.048.02-2.1 0-3.143-.032-1.616-.179-3.264 1.719-4.074a.683.683 0 0 0 .273-.529c.046-2.525.114-4.981-1.291-7.339C10.115 107.481 5.084 98.708 0 89.966v-3.313m39.774 37.189c0-.957.016-1.828 0-2.7a12.866 12.866 0 0 1 2.656-8.343 15.909 15.909 0 0 0 3.223-10.037q-.008-14.5 0-28.989a8.723 8.723 0 0 0-.023-.993c-.132-1.129-.707-1.917-1.9-1.864-1.182.052-1.718.811-1.713 2 .015 3.258 0 6.515 0 9.773 0 .442.025.887-.02 1.324a2.689 2.689 0 0 1-2.539 2.587 2.66 2.66 0 0 1-2.558-2.545 13.225 13.225 0 0 1-.031-1.489V67.161c0-1.136-.408-1.974-1.655-2.05-1.339-.081-1.85.767-1.95 1.959-.037.439-.017.883-.017 1.325v14.246c0 .551 0 1.107-.053 1.654a2.329 2.329 0 0 1-2.394 2.276 2.423 2.423 0 0 1-2.551-2.14 6.976 6.976 0 0 1-.053-1.486V62.901c0-.442.162-1-.046-1.3-.457-.657-1.042-1.536-1.691-1.645-.524-.089-1.339.721-1.789 1.311-.277.362-.14 1.063-.14 1.612q-.01 10.187-.005 20.375c0 2.166-.927 3.387-2.53 3.353-1.555-.032-2.433-1.206-2.435-3.276 0-5.246.008-10.491-.006-15.737-.005-1.7-.707-2.591-1.957-2.482-1.547.135-1.721 1.238-1.718 2.506.017 7.013.008 14.026.008 21.038v.829c.037 1.342.534 2.013 2.058 1.775a9.23 9.23 0 0 1 3.273.085 9.47 9.47 0 0 1 7.463 6.753 9.2 9.2 0 0 1-2.275 9.628 3.239 3.239 0 0 1-2.588.816 2.823 2.823 0 0 1-1.755-1.871 3.887 3.887 0 0 1 .879-2.49 5.069 5.069 0 0 0 .129-6.142A4.958 4.958 0 0 0 17.1 96.64c-2.069.834-2.988.547-4.1-1.35q-2.216-3.78-4.381-7.589A1.829 1.829 0 0 0 6 86.738a1.715 1.715 0 0 0-.619 2.675c4.656 7.939 9.382 15.839 13.922 23.846a25.79 25.79 0 0 1 2.242 6.291 21.875 21.875 0 0 1 .259 4.293zm1.94 5.278H19.719v4.464h21.994z" transform="translate(0 4.092)" style="fill:#ff2366"/>
    </g>
</svg>
